<mxfile host="Electron" agent="Mozilla/5.0 (X11; Linux x86_64) AppleWebKit/537.36 (KHTML, like Gecko) draw.io/24.7.17 Chrome/128.0.6613.36 Electron/32.0.1 Safari/537.36" version="24.7.17">
  <diagram name="Page-1" id="1NCLN7Q19c2dh5S90SBv">
    <mxGraphModel dx="1389" dy="980" grid="0" gridSize="10" guides="1" tooltips="1" connect="1" arrows="1" fold="1" page="0" pageScale="1" pageWidth="850" pageHeight="1100" math="0" shadow="0">
      <root>
        <mxCell id="0" />
        <mxCell id="1" parent="0" />
        <mxCell id="0oviwOhFYknXnG-YnuMc-1" value=":Interface" style="shape=umlLifeline;perimeter=lifelinePerimeter;whiteSpace=wrap;html=1;container=0;dropTarget=0;collapsible=0;recursiveResize=0;outlineConnect=0;portConstraint=eastwest;newEdgeStyle={&quot;edgeStyle&quot;:&quot;elbowEdgeStyle&quot;,&quot;elbow&quot;:&quot;vertical&quot;,&quot;curved&quot;:0,&quot;rounded&quot;:0};" vertex="1" parent="1">
          <mxGeometry x="-57" y="-68" width="100" height="362" as="geometry" />
        </mxCell>
        <mxCell id="0oviwOhFYknXnG-YnuMc-2" value="" style="html=1;points=[];perimeter=orthogonalPerimeter;outlineConnect=0;targetShapes=umlLifeline;portConstraint=eastwest;newEdgeStyle={&quot;edgeStyle&quot;:&quot;elbowEdgeStyle&quot;,&quot;elbow&quot;:&quot;vertical&quot;,&quot;curved&quot;:0,&quot;rounded&quot;:0};" vertex="1" parent="0oviwOhFYknXnG-YnuMc-1">
          <mxGeometry x="45" y="99" width="10" height="214" as="geometry" />
        </mxCell>
        <mxCell id="0oviwOhFYknXnG-YnuMc-21" value="" style="endArrow=classic;html=1;rounded=0;fontSize=12;startSize=8;endSize=8;curved=1;" edge="1" parent="0oviwOhFYknXnG-YnuMc-1">
          <mxGeometry width="50" height="50" relative="1" as="geometry">
            <mxPoint x="54.5" y="264" as="sourcePoint" />
            <mxPoint x="60.5" y="286" as="targetPoint" />
            <Array as="points">
              <mxPoint x="96.5" y="269" />
            </Array>
          </mxGeometry>
        </mxCell>
        <mxCell id="0oviwOhFYknXnG-YnuMc-22" value="gerarGraficoIntraday()" style="edgeLabel;html=1;align=center;verticalAlign=middle;resizable=0;points=[];fontSize=9;" vertex="1" connectable="0" parent="0oviwOhFYknXnG-YnuMc-21">
          <mxGeometry x="0.4751" y="-4" relative="1" as="geometry">
            <mxPoint x="50" y="-1" as="offset" />
          </mxGeometry>
        </mxCell>
        <mxCell id="0oviwOhFYknXnG-YnuMc-20" value="&lt;span style=&quot;color: rgba(0, 0, 0, 0); font-family: monospace; font-size: 0px; text-align: start;&quot;&gt;%3CmxGraphModel%3E%3Croot%3E%3CmxCell%20id%3D%220%22%2F%3E%3CmxCell%20id%3D%221%22%20parent%3D%220%22%2F%3E%3CmxCell%20id%3D%222%22%20value%3D%22%26lt%3Bfont%20style%3D%26quot%3Bfont-size%3A%209px%3B%26quot%3B%26gt%3B%5Bse%20n%C3%A3o%20houve%26lt%3B%2Ffont%26gt%3B%26lt%3Bdiv%20style%3D%26quot%3Bfont-size%3A%209px%3B%26quot%3B%26gt%3B%26lt%3Bfont%20style%3D%26quot%3Bfont-size%3A%209px%3B%26quot%3B%26gt%3Berro%5D%26lt%3B%2Ffont%26gt%3B%26lt%3B%2Fdiv%26gt%3B%22%20style%3D%22text%3Bhtml%3D1%3Balign%3Dcenter%3BverticalAlign%3Dmiddle%3Bresizable%3D0%3Bpoints%3D%5B%5D%3Bautosize%3D1%3BstrokeColor%3Dnone%3BfillColor%3Dnone%3BfontSize%3D9%3B%22%20vertex%3D%221%22%20parent%3D%221%22%3E%3CmxGeometry%20x%3D%22438%22%20y%3D%22306%22%20width%3D%2275%22%20height%3D%2234%22%20as%3D%22geometry%22%2F%3E%3C%2FmxCell%3E%3C%2Froot%3E%3C%2FmxGraphModel%3E&lt;/span&gt;" style="html=1;points=[];perimeter=orthogonalPerimeter;outlineConnect=0;targetShapes=umlLifeline;portConstraint=eastwest;newEdgeStyle={&quot;edgeStyle&quot;:&quot;elbowEdgeStyle&quot;,&quot;elbow&quot;:&quot;vertical&quot;,&quot;curved&quot;:0,&quot;rounded&quot;:0};" vertex="1" parent="0oviwOhFYknXnG-YnuMc-1">
          <mxGeometry x="50" y="276" width="10" height="18" as="geometry" />
        </mxCell>
        <mxCell id="0oviwOhFYknXnG-YnuMc-3" value="" style="endArrow=none;dashed=1;html=1;rounded=0;" edge="1" parent="1">
          <mxGeometry width="50" height="50" relative="1" as="geometry">
            <mxPoint x="-163" y="293" as="sourcePoint" />
            <mxPoint x="-163" y="-6" as="targetPoint" />
          </mxGeometry>
        </mxCell>
        <mxCell id="0oviwOhFYknXnG-YnuMc-4" value="Usuário" style="shape=umlActor;verticalLabelPosition=bottom;verticalAlign=top;html=1;outlineConnect=0;" vertex="1" parent="1">
          <mxGeometry x="-178" y="-85" width="30" height="60" as="geometry" />
        </mxCell>
        <mxCell id="0oviwOhFYknXnG-YnuMc-5" value="" style="rounded=0;whiteSpace=wrap;html=1;" vertex="1" parent="1">
          <mxGeometry x="-168" y="20" width="10" height="233" as="geometry" />
        </mxCell>
        <mxCell id="0oviwOhFYknXnG-YnuMc-6" value="" style="endArrow=classic;html=1;rounded=0;fontSize=12;startSize=8;endSize=8;curved=1;" edge="1" parent="1" target="0oviwOhFYknXnG-YnuMc-2">
          <mxGeometry width="50" height="50" relative="1" as="geometry">
            <mxPoint x="-158" y="38" as="sourcePoint" />
            <mxPoint x="-108" y="-12" as="targetPoint" />
          </mxGeometry>
        </mxCell>
        <mxCell id="0oviwOhFYknXnG-YnuMc-7" value="seleciona opção &quot;consultar&lt;div&gt;gráfico intraday e&lt;/div&gt;&lt;div&gt;histórico da ação&quot; e seleciona&lt;/div&gt;&lt;div&gt;a ação&lt;/div&gt;" style="edgeLabel;html=1;align=center;verticalAlign=middle;resizable=0;points=[];fontSize=10;" vertex="1" connectable="0" parent="0oviwOhFYknXnG-YnuMc-6">
          <mxGeometry x="0.5382" y="2" relative="1" as="geometry">
            <mxPoint x="-41" y="32" as="offset" />
          </mxGeometry>
        </mxCell>
        <mxCell id="0oviwOhFYknXnG-YnuMc-8" value="[se logado e na tela de carteira]" style="text;html=1;align=center;verticalAlign=middle;whiteSpace=wrap;rounded=0;fontSize=10;" vertex="1" parent="1">
          <mxGeometry x="-132" y="7" width="87" height="30" as="geometry" />
        </mxCell>
        <mxCell id="0oviwOhFYknXnG-YnuMc-9" value="" style="endArrow=open;html=1;rounded=0;fontSize=12;startSize=8;endSize=8;curved=1;endFill=0;dashed=1;" edge="1" parent="1">
          <mxGeometry width="50" height="50" relative="1" as="geometry">
            <mxPoint x="-12" y="239" as="sourcePoint" />
            <mxPoint x="-156" y="239" as="targetPoint" />
          </mxGeometry>
        </mxCell>
        <mxCell id="0oviwOhFYknXnG-YnuMc-10" value="exibe gráfico intraday e&lt;div&gt;histórico da ação&lt;/div&gt;&lt;div&gt;selecionada&lt;/div&gt;" style="edgeLabel;html=1;align=center;verticalAlign=middle;resizable=0;points=[];fontSize=10;" vertex="1" connectable="0" parent="0oviwOhFYknXnG-YnuMc-9">
          <mxGeometry x="0.0815" relative="1" as="geometry">
            <mxPoint x="6" y="21" as="offset" />
          </mxGeometry>
        </mxCell>
        <mxCell id="0oviwOhFYknXnG-YnuMc-11" value="UC-23&lt;div&gt;Consultar gráfico intraday e histórico de ação específica&lt;/div&gt;" style="strokeWidth=2;html=1;shape=mxgraph.flowchart.start_1;whiteSpace=wrap;" vertex="1" parent="1">
          <mxGeometry x="95" y="-179" width="134" height="83" as="geometry" />
        </mxCell>
        <mxCell id="0oviwOhFYknXnG-YnuMc-12" value=":APIB3" style="shape=umlLifeline;perimeter=lifelinePerimeter;whiteSpace=wrap;html=1;container=1;dropTarget=0;collapsible=0;recursiveResize=0;outlineConnect=0;portConstraint=eastwest;newEdgeStyle={&quot;curved&quot;:0,&quot;rounded&quot;:0};" vertex="1" parent="1">
          <mxGeometry x="254" y="-69" width="130" height="363" as="geometry" />
        </mxCell>
        <mxCell id="0oviwOhFYknXnG-YnuMc-13" value="" style="html=1;points=[[0,0,0,0,5],[0,1,0,0,-5],[1,0,0,0,5],[1,1,0,0,-5]];perimeter=orthogonalPerimeter;outlineConnect=0;targetShapes=umlLifeline;portConstraint=eastwest;newEdgeStyle={&quot;curved&quot;:0,&quot;rounded&quot;:0};" vertex="1" parent="0oviwOhFYknXnG-YnuMc-12">
          <mxGeometry x="60.5" y="114" width="9" height="45" as="geometry" />
        </mxCell>
        <mxCell id="0oviwOhFYknXnG-YnuMc-15" value="" style="endArrow=none;dashed=1;html=1;rounded=0;" edge="1" parent="1">
          <mxGeometry width="50" height="50" relative="1" as="geometry">
            <mxPoint x="480" y="295" as="sourcePoint" />
            <mxPoint x="482" y="3" as="targetPoint" />
          </mxGeometry>
        </mxCell>
        <mxCell id="0oviwOhFYknXnG-YnuMc-16" value="" style="html=1;points=[[0,0,0,0,5],[0,1,0,0,-5],[1,0,0,0,5],[1,1,0,0,-5]];perimeter=orthogonalPerimeter;outlineConnect=0;targetShapes=umlLifeline;portConstraint=eastwest;newEdgeStyle={&quot;curved&quot;:0,&quot;rounded&quot;:0};" vertex="1" parent="1">
          <mxGeometry x="477" y="56" width="10" height="20" as="geometry" />
        </mxCell>
        <mxCell id="0oviwOhFYknXnG-YnuMc-17" value="API B3" style="shape=umlActor;verticalLabelPosition=bottom;verticalAlign=top;html=1;" vertex="1" parent="1">
          <mxGeometry x="465" y="-89" width="30" height="60" as="geometry" />
        </mxCell>
        <mxCell id="0oviwOhFYknXnG-YnuMc-18" value=":Acao" style="shape=umlLifeline;perimeter=lifelinePerimeter;whiteSpace=wrap;html=1;container=1;dropTarget=0;collapsible=0;recursiveResize=0;outlineConnect=0;portConstraint=eastwest;newEdgeStyle={&quot;curved&quot;:0,&quot;rounded&quot;:0};" vertex="1" parent="1">
          <mxGeometry x="69" y="-68" width="155" height="362" as="geometry" />
        </mxCell>
        <mxCell id="0oviwOhFYknXnG-YnuMc-19" value="" style="html=1;points=[[0,0,0,0,5],[0,1,0,0,-5],[1,0,0,0,5],[1,1,0,0,-5]];perimeter=orthogonalPerimeter;outlineConnect=0;targetShapes=umlLifeline;portConstraint=eastwest;newEdgeStyle={&quot;curved&quot;:0,&quot;rounded&quot;:0};" vertex="1" parent="0oviwOhFYknXnG-YnuMc-18">
          <mxGeometry x="73" y="177" width="9" height="55" as="geometry" />
        </mxCell>
        <mxCell id="0oviwOhFYknXnG-YnuMc-28" value="" style="endArrow=classic;html=1;rounded=0;fontSize=12;startSize=8;endSize=8;curved=1;entryX=0;entryY=0;entryDx=0;entryDy=5;entryPerimeter=0;" edge="1" parent="1" source="0oviwOhFYknXnG-YnuMc-2" target="0oviwOhFYknXnG-YnuMc-13">
          <mxGeometry width="50" height="50" relative="1" as="geometry">
            <mxPoint x="151" y="70" as="sourcePoint" />
            <mxPoint x="201" y="20" as="targetPoint" />
          </mxGeometry>
        </mxCell>
        <mxCell id="0oviwOhFYknXnG-YnuMc-29" value="obterDadosAcao()" style="edgeLabel;html=1;align=center;verticalAlign=middle;resizable=0;points=[];fontSize=10;" vertex="1" connectable="0" parent="0oviwOhFYknXnG-YnuMc-28">
          <mxGeometry x="-0.0738" y="2" relative="1" as="geometry">
            <mxPoint x="-97" y="-7" as="offset" />
          </mxGeometry>
        </mxCell>
        <mxCell id="0oviwOhFYknXnG-YnuMc-30" value="" style="endArrow=classic;html=1;rounded=0;fontSize=12;startSize=8;endSize=8;curved=1;entryX=0;entryY=0;entryDx=0;entryDy=0;entryPerimeter=0;" edge="1" parent="1">
          <mxGeometry width="50" height="50" relative="1" as="geometry">
            <mxPoint x="324.5" y="58" as="sourcePoint" />
            <mxPoint x="477.5" y="58" as="targetPoint" />
          </mxGeometry>
        </mxCell>
        <mxCell id="0oviwOhFYknXnG-YnuMc-31" value="&lt;font style=&quot;font-size: 10px;&quot;&gt;requisita dados da acao&lt;/font&gt;" style="edgeLabel;html=1;align=center;verticalAlign=middle;resizable=0;points=[];fontSize=12;" vertex="1" connectable="0" parent="0oviwOhFYknXnG-YnuMc-30">
          <mxGeometry x="-0.009" y="1" relative="1" as="geometry">
            <mxPoint x="-1" y="-9" as="offset" />
          </mxGeometry>
        </mxCell>
        <mxCell id="0oviwOhFYknXnG-YnuMc-32" value="" style="endArrow=open;html=1;rounded=0;fontSize=12;startSize=8;endSize=8;curved=1;endFill=0;dashed=1;" edge="1" parent="1" source="0oviwOhFYknXnG-YnuMc-16">
          <mxGeometry width="50" height="50" relative="1" as="geometry">
            <mxPoint x="477.75" y="95" as="sourcePoint" />
            <mxPoint x="324.25" y="73" as="targetPoint" />
          </mxGeometry>
        </mxCell>
        <mxCell id="0oviwOhFYknXnG-YnuMc-33" value="&lt;font style=&quot;font-size: 10px;&quot;&gt;retorna dados da acao&lt;/font&gt;" style="edgeLabel;html=1;align=center;verticalAlign=middle;resizable=0;points=[];fontSize=12;" vertex="1" connectable="0" parent="1">
          <mxGeometry x="405.0042857142858" y="83" as="geometry" />
        </mxCell>
        <mxCell id="0oviwOhFYknXnG-YnuMc-34" value="" style="endArrow=open;html=1;rounded=0;fontSize=12;startSize=8;endSize=8;curved=1;endFill=0;dashed=1;" edge="1" parent="1" target="0oviwOhFYknXnG-YnuMc-2">
          <mxGeometry width="50" height="50" relative="1" as="geometry">
            <mxPoint x="314" y="82.71000000000001" as="sourcePoint" />
            <mxPoint x="150" y="82.71000000000001" as="targetPoint" />
          </mxGeometry>
        </mxCell>
        <mxCell id="0oviwOhFYknXnG-YnuMc-35" value="dados da acao" style="edgeLabel;html=1;align=center;verticalAlign=middle;resizable=0;points=[];fontSize=10;" vertex="1" connectable="0" parent="0oviwOhFYknXnG-YnuMc-34">
          <mxGeometry x="0.0528" relative="1" as="geometry">
            <mxPoint x="131" y="7" as="offset" />
          </mxGeometry>
        </mxCell>
        <mxCell id="0oviwOhFYknXnG-YnuMc-54" value="" style="endArrow=classic;html=1;rounded=0;fontSize=12;startSize=8;endSize=8;curved=1;" edge="1" parent="1" target="0oviwOhFYknXnG-YnuMc-19">
          <mxGeometry width="50" height="50" relative="1" as="geometry">
            <mxPoint x="-2" y="114" as="sourcePoint" />
            <mxPoint x="48" y="64" as="targetPoint" />
          </mxGeometry>
        </mxCell>
        <mxCell id="0oviwOhFYknXnG-YnuMc-55" value="getPrecoMaximo(), getPrecoMinimo(),&lt;div style=&quot;font-size: 7px;&quot;&gt;getPrecoAbertura(), getPrecoFechamento(),&lt;/div&gt;&lt;div style=&quot;font-size: 7px;&quot;&gt;getHistoricoPrecos(), etc.&lt;/div&gt;&lt;div style=&quot;font-size: 7px;&quot;&gt;&lt;br style=&quot;font-size: 7px;&quot;&gt;&lt;/div&gt;&lt;div style=&quot;font-size: 7px;&quot;&gt;&lt;br style=&quot;font-size: 7px;&quot;&gt;&lt;/div&gt;" style="edgeLabel;html=1;align=center;verticalAlign=middle;resizable=0;points=[];fontSize=7;" vertex="1" connectable="0" parent="0oviwOhFYknXnG-YnuMc-54">
          <mxGeometry x="0.1222" y="-1" relative="1" as="geometry">
            <mxPoint x="-10" y="25" as="offset" />
          </mxGeometry>
        </mxCell>
        <mxCell id="0oviwOhFYknXnG-YnuMc-58" value="" style="endArrow=open;html=1;rounded=0;fontSize=12;startSize=8;endSize=8;curved=1;endFill=0;dashed=1;" edge="1" parent="1">
          <mxGeometry width="50" height="50" relative="1" as="geometry">
            <mxPoint x="142" y="159" as="sourcePoint" />
            <mxPoint x="-1" y="159" as="targetPoint" />
          </mxGeometry>
        </mxCell>
        <mxCell id="0oviwOhFYknXnG-YnuMc-59" value="preço máximo, mínimo, preço&lt;div style=&quot;font-size: 8px;&quot;&gt;abertura, fechamento, histórico&lt;/div&gt;&lt;div style=&quot;font-size: 8px;&quot;&gt;de preços, etc.&lt;/div&gt;" style="edgeLabel;html=1;align=center;verticalAlign=middle;resizable=0;points=[];fontSize=8;" vertex="1" connectable="0" parent="0oviwOhFYknXnG-YnuMc-58">
          <mxGeometry x="0.0528" relative="1" as="geometry">
            <mxPoint x="5" y="17" as="offset" />
          </mxGeometry>
        </mxCell>
      </root>
    </mxGraphModel>
  </diagram>
</mxfile>
